# xmcd
#
# Track frame offsets:
#	150
#	12914
#	23679
#	37083
#	49869
#	73808
#	86310
#	99343
#	111338
#	123105
#	132977
#	149894
#	163468
#	172831
#	184936
#	198526
#	211199
#	227491
#	242335
#	254750
#
# Disc length: 3528 seconds
#
# Revision: 0
# Processed by: cddbd v1.5.1PL2 Copyright (c) Steve Scherf et al.
# Submitted via: EasyCDDAExtractor 9.0.0.1
#
DISCID=1e0dc614
DTITLE=Various Artist - Maestros del Blues CD 1
DYEAR=1900
DGENRE=
TTITLE0=Muddy Waters - I'm your hoochie coochie man
TTITLE1=B. B. King - Recesion Blues
TTITLE2=John Lee Hooker - One bourbon, one scotch, one beer
TTITLE3=Ray Charles - Baby won't you please come home
TTITLE4=The Inlavables - Hot box blues
TTITLE5=Etta James and Foqua - If I can't have you
TTITLE6=Howlin Wolf - Baby how long
TTITLE7=Buddy Guy - Going home
TTITLE8=Sonny Boy Williamson - Don't start me talking
TTITLE9=John Mayall and Bluesbreakers - I'm your witch doctor
TTITLE10=Eric Bell - You smiled
TTITLE11=Bo Wilson - Magic man
TTITLE12=Jimi Hendrix - Go-go place
TTITLE13=Tina Turner - Ya-ya
TTITLE14=Labert King - Bad Luck blues
TTITLE15=Gatemouth Moore - Boogie woogie papa
TTITLE16=Memphis Slim - Blues and disgusted
TTITLE17=The Dells - Love is blue - I can song a rainbow
TTITLE18=Hot Fussion Blues - Next to you
TTITLE19=Otis Rush - I can't stop baby
EXTD=
EXTT0=
EXTT1=
EXTT2=
EXTT3=
EXTT4=
EXTT5=
EXTT6=
EXTT7=
EXTT8=
EXTT9=
EXTT10=
EXTT11=
EXTT12=
EXTT13=
EXTT14=
EXTT15=
EXTT16=
EXTT17=
EXTT18=
EXTT19=
PLAYORDER=
